<svg width="250" height="250" viewBox="0 0 250 250" fill="none" xmlns="http://www.w3.org/2000/svg">
<circle cx="125" cy="125" r="121" fill="white" stroke="black" stroke-width="8"/>
<path d="M60.2734 177H79.0508V121.477C79.0508 114.948 80.8477 109.977 84.4414 106.562C87.8555 103.089 92.2578 101.352 97.6484 101.352C103.039 101.352 107.471 103.089 110.945 106.562C114.359 109.977 116.066 114.948 116.066 121.477V177H134.844V121.477C134.844 114.948 136.611 109.977 140.145 106.562C143.618 103.089 148.051 101.352 153.441 101.352C158.832 101.352 163.234 103.089 166.648 106.562C170.062 109.977 171.77 114.948 171.77 121.477V177H190.547V115.008C190.307 104.346 187.013 96.2604 180.664 90.75C174.255 85.2995 167.188 82.5742 159.461 82.5742C147.182 82.4544 137.389 86.5273 130.082 94.793C126.848 91.1992 123.284 88.2344 119.391 85.8984C115.438 83.8021 110.227 82.694 103.758 82.5742C93.6953 82.5742 85.5794 86.2578 79.4102 93.625H79.0508V83.7422H60.2734V177Z" fill="black"/>
</svg>
