<svg width="416" height="362" viewBox="0 0 416 362" fill="none" xmlns="http://www.w3.org/2000/svg">
<circle cx="199" cy="125" r="121" fill="white" stroke="black" stroke-width="8"/>
<circle cx="199" cy="125" r="117" fill="white" stroke="black" stroke-width="16"/>
<path d="M146.98 161.98L199 110.073L251.02 161.98L267 146L199 78L131 146L146.98 161.98Z" fill="black"/>
<path d="M8.21875 323.406L1.42188 331.188C8.70312 337.438 17.4062 340.562 27.5312 340.562C43.1875 340.375 51.1875 333.75 51.5312 320.688C51.5312 315.844 50.0156 311.594 46.9844 307.938C43.9219 304.219 39.1875 301.922 32.7812 301.047C29.5312 300.641 26.9688 300.281 25.0938 299.969C21.7188 299.344 19.2656 298.219 17.7344 296.594C16.2031 295 15.4375 293.219 15.4375 291.25C15.5 287.969 16.6406 285.5 18.8594 283.844C20.9844 282.25 23.6406 281.453 26.8281 281.453C32.9844 281.578 38.625 283.328 43.75 286.703L49.5156 278.172C43.2344 273.641 35.8438 271.281 27.3438 271.094C20.2812 271.156 14.8281 273 10.9844 276.625C7.01562 280.281 5.03125 285.094 5.03125 291.062C5.03125 296.031 6.60938 300.25 9.76562 303.719C12.8281 307.094 17.2969 309.266 23.1719 310.234C26.4531 310.703 29.4688 311.125 32.2188 311.5C38.2188 312.531 41.1875 315.594 41.125 320.688C41 326.906 36.5 330.078 27.625 330.203C20.125 330.141 13.6562 327.875 8.21875 323.406ZM90.2031 325.703C87.7344 329.016 84.4375 330.703 80.3125 330.766C72 330.922 67.7812 325.906 67.6562 315.719C67.7812 305.469 72 300.406 80.3125 300.531C84.4375 300.656 87.7344 302.359 90.2031 305.641L97.4219 299.219C95.2969 296.656 92.7969 294.609 89.9219 293.078C87.0469 291.578 83.7188 290.797 79.9375 290.734C74.1875 290.672 69.1406 292.594 64.7969 296.5C60.2969 300.469 57.9844 306.875 57.8594 315.719C57.9844 324.469 60.2969 330.797 64.7969 334.703C69.1406 338.609 74.1875 340.562 79.9375 340.562C83.7188 340.5 87.0469 339.672 89.9219 338.078C92.7969 336.547 95.2969 334.562 97.4219 332.125L90.2031 325.703ZM104.266 340H114.062V310.703C114.125 307.141 115.156 304.562 117.156 302.969C118.938 301.344 121.078 300.531 123.578 300.531C125.797 300.531 127.938 301.344 130 302.969L137.125 294.484C134.219 292.047 130.812 290.797 126.906 290.734C121.688 290.734 117.469 292.656 114.25 296.5H114.062V291.344H104.266V340ZM137.5 315.625C137.5 320.75 137.922 324.656 138.766 327.344C139.641 330.031 140.984 332.359 142.797 334.328C144.141 335.859 146.016 337.234 148.422 338.453C150.797 339.797 153.844 340.5 157.562 340.562C161.406 340.5 164.516 339.797 166.891 338.453C168.172 337.891 169.219 337.219 170.031 336.438C170.938 335.75 171.703 335.047 172.328 334.328C174.266 332.359 175.641 330.031 176.453 327.344C177.234 324.656 177.625 320.75 177.625 315.625C177.625 310.5 177.234 306.562 176.453 303.812C175.641 301.125 174.266 298.859 172.328 297.016C171.047 295.391 169.234 293.938 166.891 292.656C164.516 291.438 161.406 290.797 157.562 290.734C153.844 290.797 150.797 291.438 148.422 292.656C146.016 293.938 144.141 295.391 142.797 297.016C140.984 298.859 139.641 301.125 138.766 303.812C137.922 306.562 137.5 310.5 137.5 315.625ZM167.828 315.719C167.828 319.031 167.672 321.469 167.359 323.031C167.047 324.625 166.406 326.031 165.438 327.25C164.719 328.188 163.656 329.016 162.25 329.734C160.906 330.422 159.344 330.766 157.562 330.766C155.906 330.766 154.375 330.422 152.969 329.734C151.625 329.016 150.531 328.188 149.688 327.25C148.844 326.031 148.234 324.625 147.859 323.031C147.484 321.469 147.297 319 147.297 315.625C147.297 312.219 147.484 309.719 147.859 308.125C148.234 306.594 148.844 305.25 149.688 304.094C150.531 303 151.625 302.141 152.969 301.516C154.375 300.859 155.906 300.531 157.562 300.531C159.344 300.531 160.906 300.859 162.25 301.516C163.656 302.141 164.719 303 165.438 304.094C166.406 305.25 167.047 306.594 167.359 308.125C167.672 309.719 167.828 312.25 167.828 315.719ZM187.891 328.188C187.891 332.469 189.109 335.516 191.547 337.328C193.859 339.109 196.797 340 200.359 340H204.719V330.766H201.344C198.906 330.766 197.688 329.656 197.688 327.438V271.656H187.891V328.188ZM212.641 328.188C212.641 332.469 213.859 335.516 216.297 337.328C218.609 339.109 221.547 340 225.109 340H229.469V330.766H226.094C223.656 330.766 222.438 329.656 222.438 327.438V271.656H212.641V328.188ZM272.922 340H283.328V280.891H302.031V271.656H254.219V280.891H272.922V340ZM305.219 305.828C305.219 313.641 305.453 318.922 305.922 321.672C306.172 323.141 306.484 324.359 306.859 325.328C307.266 326.266 307.719 327.25 308.219 328.281C309.875 331.438 312.531 334.219 316.188 336.625C319.781 339.125 324.266 340.438 329.641 340.562C335.078 340.438 339.609 339.125 343.234 336.625C346.828 334.219 349.422 331.438 351.016 328.281C352.172 326.625 352.969 324.422 353.406 321.672C353.812 318.922 354.016 313.641 354.016 305.828C354.016 297.891 353.812 292.578 353.406 289.891C352.969 287.203 352.172 285.031 351.016 283.375C349.422 280.219 346.828 277.406 343.234 274.938C339.609 272.438 335.078 271.156 329.641 271.094C324.266 271.156 319.781 272.438 316.188 274.938C312.531 277.406 309.875 280.219 308.219 283.375C307.188 285.031 306.422 287.203 305.922 289.891C305.453 292.578 305.219 297.891 305.219 305.828ZM315.625 305.828C315.625 299.109 315.875 294.531 316.375 292.094C316.812 289.781 317.703 287.891 319.047 286.422C320.141 285.016 321.578 283.844 323.359 282.906C325.109 282 327.203 281.516 329.641 281.453C332.109 281.516 334.25 282 336.062 282.906C337.781 283.844 339.156 285.016 340.188 286.422C341.531 287.891 342.453 289.781 342.953 292.094C343.422 294.531 343.656 299.109 343.656 305.828C343.656 312.547 343.422 317.094 342.953 319.469C342.453 321.844 341.531 323.766 340.188 325.234C339.156 326.641 337.781 327.781 336.062 328.656C334.25 329.688 332.109 330.203 329.641 330.203C327.203 330.203 325.109 329.688 323.359 328.656C321.578 327.781 320.141 326.641 319.047 325.234C317.703 323.766 316.812 321.844 316.375 319.469C315.875 317.094 315.625 312.547 315.625 305.828ZM376.516 281.453H391.469C394.281 281.391 396.75 282.031 398.875 283.375C400.281 284.188 401.375 285.297 402.156 286.703C402.906 288.266 403.281 290.188 403.281 292.469C403.281 295.219 402.359 297.719 400.516 299.969C398.578 302.281 395.688 303.469 391.844 303.531H376.516V281.453ZM366.156 340H376.516V313.328H392.266C399.297 313.203 404.641 310.953 408.297 306.578C411.859 302.422 413.641 297.812 413.641 292.75C413.641 289 412.938 285.75 411.531 283C410.188 280.156 408.438 277.969 406.281 276.438C403.719 274.406 401.188 273.062 398.688 272.406C396.188 271.906 393.594 271.656 390.906 271.656H366.156V340Z" fill="black"/>
</svg>
